<svg xmlns="http://www.w3.org/2000/svg" width="14" height="13" viewBox="0 0 14 13" fill="none">
  <path d="M10.1596 9.20007L8.99963 8.00007L4.99963 4.00007L3.79963 2.84007L1.45963 0.500073C1.36548 0.405921 1.23778 0.353027 1.10463 0.353027C0.971477 0.353027 0.843779 0.405921 0.749627 0.500073C0.655476 0.594225 0.602582 0.721922 0.602582 0.855073C0.602582 0.988224 0.655476 1.11592 0.749627 1.21007L2.88963 3.34007C1.89026 3.9688 1.04042 4.8084 0.399627 5.80007C0.355674 5.86127 0.332031 5.93472 0.332031 6.01007C0.332031 6.08542 0.355674 6.15887 0.399627 6.22007C1.09333 7.34584 2.06457 8.27454 3.22025 8.91717C4.37593 9.5598 5.6773 9.8948 6.99963 9.89007C7.72794 9.88711 8.45203 9.77934 9.14963 9.57007L11.8296 12.2501C11.9238 12.3442 12.0515 12.3971 12.1846 12.3971C12.3178 12.3971 12.4455 12.3442 12.5396 12.2501C12.6338 12.1559 12.6867 12.0282 12.6867 11.8951C12.6867 11.7619 12.6338 11.6342 12.5396 11.5401L10.1596 9.20007ZM6.99963 8.82007C6.533 8.82234 6.07326 8.70753 5.66248 8.48616C5.25171 8.26478 4.90301 7.94392 4.64832 7.55292C4.39363 7.16193 4.24107 6.7133 4.20461 6.24809C4.16815 5.78289 4.24896 5.31597 4.43963 4.89007L8.11963 8.57007C7.76784 8.73067 7.38632 8.81583 6.99963 8.82007ZM6.99963 3.22007C7.27794 3.22197 7.55438 3.26579 7.81963 3.35007L7.49963 5.52007C7.48621 5.57796 7.48775 5.63831 7.5041 5.69544C7.52045 5.75256 7.55108 5.80459 7.5931 5.8466C7.63512 5.88862 7.68714 5.91925 7.74427 5.9356C7.80139 5.95195 7.86174 5.95349 7.91963 5.94007L9.75963 5.68007C9.76623 5.78997 9.76623 5.90017 9.75963 6.01007C9.75932 6.40686 9.67407 6.79897 9.50963 7.16007L11.0396 8.69007C12.1263 8.0227 13.0328 7.09907 13.6796 6.00007C13.001 4.82868 12.027 3.85577 10.8548 3.17845C9.6827 2.50113 8.3534 2.14309 6.99963 2.14007C6.27515 2.14061 5.55448 2.245 4.85963 2.45007L5.85963 3.45007C6.21916 3.29389 6.60766 3.21551 6.99963 3.22007Z" fill="#E1E1E1"/>
</svg>